<svg width="68" height="68" viewBox="0 0 68 68" fill="none" xmlns="http://www.w3.org/2000/svg">
<path d="M11.9004 32.9755C11.9004 32.0366 12.6615 31.2755 13.6004 31.2755H19.511H21.329C24.0265 31.2755 26.5528 29.9537 28.0908 27.7376L29.6181 25.5369C30.2593 24.613 30.7139 23.5728 30.9564 22.4747L31.4756 20.1235C31.8784 18.299 33.4956 17 35.3641 17C37.2516 17 38.8799 18.3252 39.2632 20.1734L39.5154 21.3892C39.8806 23.1498 39.5353 24.9834 38.5546 26.4906L35.4414 31.2755H42.5673C47.416 31.2755 50.7276 36.1778 48.9175 40.6759L44.2793 52.2016C43.0583 55.2359 39.9467 57.0671 36.7013 56.6614L19.511 54.5126H13.6004C12.6615 54.5126 11.9004 53.7515 11.9004 52.8126V32.9755Z" fill="#8FB4FF"/>
<path d="M13.5996 34C13.5996 33.5306 13.9802 33.15 14.4496 33.15H19.5496V52.7H14.4496C13.9802 52.7 13.5996 52.3195 13.5996 51.85V34Z" fill="white"/>
<path d="M53.168 4.71771C54.0374 8.2627 56.8053 11.0306 60.3503 11.9C56.8053 12.7694 54.0374 15.5373 53.168 19.0823C52.2985 15.5373 49.5307 12.7694 45.9857 11.9C49.5307 11.0306 52.2985 8.2627 53.168 4.71771Z" fill="#CDDBF6"/>
<path d="M61.668 20.0177C62.2622 22.4406 64.1539 24.3323 66.5768 24.9266C64.1539 25.5208 62.2622 27.4125 61.668 29.8354C61.0737 27.4125 59.182 25.5208 56.7591 24.9266C59.182 24.3323 61.0737 22.4406 61.668 20.0177Z" fill="#CDDBF6"/>
</svg>
