<svg width="68" height="68" viewBox="0 0 68 68" fill="none" xmlns="http://www.w3.org/2000/svg">
<path d="M54.1684 49.4545V25.925C54.1684 24.0686 52.6635 22.5636 50.807 22.5636H44.0843M13.832 49.4545V25.925C13.832 24.0686 15.337 22.5636 17.1934 22.5636H23.9161" stroke="#CDDBF6" stroke-width="1.275"/>
<path d="M18.0307 40.4692C18.2692 38.8954 19.2614 37.5374 20.6883 36.832L29.2504 32.599L34.0002 36.3745L38.7499 32.599L47.312 36.832C48.7389 37.5374 49.7312 38.8954 49.9696 40.4692L50.5108 44.0411C50.6667 45.0697 49.8704 45.9958 48.83 45.9958H19.1703C18.13 45.9958 17.3337 45.0697 17.4895 44.0411L18.0307 40.4692Z" fill="#8FB4FF"/>
<rect x="26.9355" y="13.6" width="14.1275" height="17.7811" rx="7.06373" fill="#8FB4FF"/>
<path d="M9.34961 49.4546H27.2769V51.6955H33.9996H40.7223V49.4546H58.6496V51.6955C58.6496 53.5519 57.1447 55.0569 55.2882 55.0569H12.711C10.8545 55.0569 9.34961 53.5519 9.34961 51.6955V49.4546Z" fill="#CDDBF6"/>
</svg>
