<svg width="68" height="68" viewBox="0 0 68 68" fill="none" xmlns="http://www.w3.org/2000/svg">
<circle cx="41.3982" cy="22.5154" r="11.5154" fill="#CDDBF6"/>
<path d="M51.3822 34.3339C52.7438 33.535 54.4888 33.8913 55.4282 35.1601C56.4433 36.5312 56.1547 38.4657 54.7836 39.4809L46.5764 45.5572C43.5137 47.8248 39.6922 48.819 35.9127 48.3314C33.1546 47.9756 30.3547 48.503 27.9151 49.8379L26.602 50.5564L17.7497 38.5997L18.2778 37.8981C20.9663 34.3268 25.6962 32.97 29.869 34.5731L34.4 36.3139C35.6093 36.7785 36.8973 37.004 38.1925 36.9779L41.6678 36.908L44.1482 36.7464L44.9612 38.1014L51.3822 34.3339Z" fill="#8FB4FF"/>
<rect x="15.2891" y="38.6417" width="18.1671" height="6.58022" rx="1.00134" transform="rotate(53.4848 15.2891 38.6417)" fill="#CDDBF6"/>
<path d="M31.4381 40.1035C31.0042 40.1269 30.6715 40.4976 30.6949 40.9315C30.7183 41.3654 31.089 41.6982 31.5229 41.6747L31.4381 40.1035ZM42.8594 40.2749L42.817 39.4893L31.4381 40.1035L31.4805 40.8891L31.5229 41.6747L42.9018 41.0606L42.8594 40.2749ZM41.3507 36.1824L41.3931 36.968L42.6771 36.8987L42.6347 36.1131L42.5923 35.3274L41.3083 35.3967L41.3507 36.1824ZM44.828 38.0817L44.0424 38.1241C44.081 38.8395 43.5324 39.4507 42.817 39.4893L42.8594 40.2749L42.9018 41.0606C44.4849 40.9751 45.6991 39.6224 45.6136 38.0393L44.828 38.0817ZM44.828 38.0817L45.6136 38.0393C45.5282 36.4561 44.1755 35.242 42.5923 35.3274L42.6347 36.1131L42.6771 36.8987C43.3925 36.8601 44.0038 37.4087 44.0424 38.1241L44.828 38.0817Z" fill="white"/>
<path d="M41.4375 15.3362V22.3826L46.0447 26.9899" stroke="white" stroke-width="2" stroke-linecap="round" stroke-linejoin="round"/>
</svg>
